<svg xmlns="http://www.w3.org/2000/svg" width="256" height="256" viewBox="0 0 67.733 67.733"><path d="M 6.35,-59.266697 A 6.35,6.3500028 0 0 0 0,-52.916694 V 2.1166637 a 6.35,6.3500028 0 0 0 6.35,6.3500029 h 55.033333 a 6.35,6.3500028 0 0 0 6.35,-6.3500029 V -52.916694 a 6.35,6.3500028 0 0 0 -6.35,-6.350003 z" fill="#fff" transform="translate(0 59.267)"/><path d="m 8.4666667,233.49999 a 4.2333331,4.233335 0 0 0 -4.2333334,4.23334 V 246.2 a 4.2333331,4.233335 0 0 0 4.2333334,4.23332 H 59.266667 A 4.2333331,4.233335 0 0 0 63.5,246.2 v -8.46667 a 4.2333331,4.233335 0 0 0 -4.233333,-4.23334 z M 44.45,238.79166 a 3.175,3.1750014 0 0 1 3.175,3.175 3.175,3.1750014 0 0 1 -3.175,3.17499 3.175,3.1750014 0 0 1 -3.175,-3.17499 3.175,3.1750014 0 0 1 3.175,-3.175 z m 8.466667,0 a 3.175,3.1750014 0 0 1 3.175,3.175 3.175,3.1750014 0 0 1 -3.175,3.17499 3.175,3.1750014 0 0 1 -3.175,-3.17499 3.175,3.1750014 0 0 1 3.175,-3.175 z M 8.4666667,254.66667 A 4.2333331,4.233335 0 0 0 4.2333333,258.9 v 8.46667 a 4.2333331,4.233335 0 0 0 4.2333334,4.23334 H 59.266667 A 4.2333331,4.233335 0 0 0 63.5,267.36667 V 258.9 a 4.2333331,4.233335 0 0 0 -4.233333,-4.23333 z M 44.45,259.95834 a 3.175,3.1750014 0 0 1 3.175,3.175 3.175,3.1750014 0 0 1 -3.175,3.17499 3.175,3.1750014 0 0 1 -3.175,-3.17499 3.175,3.1750014 0 0 1 3.175,-3.175 z m 8.466667,0 a 3.175,3.1750014 0 0 1 3.175,3.175 3.175,3.1750014 0 0 1 -3.175,3.17499 3.175,3.1750014 0 0 1 -3.175,-3.17499 3.175,3.1750014 0 0 1 3.175,-3.175 z m -44.4500003,15.875 a 4.2333331,4.233335 0 0 0 -4.2333334,4.23334 v 8.46667 a 4.2333331,4.233335 0 0 0 4.2333334,4.23333 H 59.266667 A 4.2333331,4.233335 0 0 0 63.5,288.53335 v -8.46667 a 4.2333331,4.233335 0 0 0 -4.233333,-4.23334 z M 44.45,281.12501 a 3.175,3.1750014 0 0 1 3.175,3.175 3.175,3.1750014 0 0 1 -3.175,3.175 3.175,3.1750014 0 0 1 -3.175,-3.175 3.175,3.1750014 0 0 1 3.175,-3.175 z m 8.466667,0 a 3.175,3.1750014 0 0 1 3.175,3.175 3.175,3.1750014 0 0 1 -3.175,3.175 3.175,3.1750014 0 0 1 -3.175,-3.175 3.175,3.1750014 0 0 1 3.175,-3.175 z" fill="#31363b" transform="translate(0 -229.267)"/></svg>