<?xml version="1.0" encoding="UTF-8"?>
<svg width="59.479" height="20.465" data-name="Layer 1" version="1.1" viewBox="0 0 59.479 20.465" xmlns="http://www.w3.org/2000/svg" xmlns:cc="http://creativecommons.org/ns#" xmlns:dc="http://purl.org/dc/elements/1.1/" xmlns:rdf="http://www.w3.org/1999/02/22-rdf-syntax-ns#">
 <metadata>
  <rdf:RDF>
   <cc:Work rdf:about="">
    <dc:format>image/svg+xml</dc:format>
    <dc:type rdf:resource="http://purl.org/dc/dcmitype/StillImage"/>
    <dc:title>logo</dc:title>
   </cc:Work>
  </rdf:RDF>
 </metadata>
 <title>logo</title>
 <path d="m18.91 6.6344q-0.367-0.126-0.74-0.234 0.062-0.252 0.115-0.506c0.56-2.72 0.194-4.912-1.058-5.634-1.2-0.692-3.162 0.03-5.144 1.755q-0.293 0.255-0.572 0.525-0.187-0.18-0.38-0.352c-2.078-1.843-4.161-2.619-5.411-1.897-1.197 0.694-1.552 2.755-1.05 5.333q0.077 0.383 0.17 0.762c-0.293 0.084-0.578 0.173-0.85 0.268-2.435 0.85-3.99 2.18-3.99 3.56 0 1.425 1.67 2.855 4.206 3.72q0.308 0.106 0.622 0.196-0.102 0.407-0.18 0.82c-0.482 2.533-0.106 4.545 1.09 5.235 1.234 0.712 3.306-0.02 5.325-1.784q0.24-0.208 0.48-0.442 0.302 0.293 0.62 0.568c1.956 1.682 3.886 2.36 5.08 1.67 1.235-0.715 1.636-2.876 1.115-5.505q-0.06-0.3-0.138-0.614 0.218-0.064 0.428-0.133c2.637-0.874 4.352-2.287 4.352-3.731 0-1.386-1.605-2.725-4.09-3.58zm-6.18-3.877c1.698-1.478 3.285-2.06 4.01-1.644 0.77 0.444 1.068 2.235 0.584 4.584q-0.047 0.23-0.103 0.457a23.538 23.538 0 0 0-3.076-0.486 23.08 23.08 0 0 0-1.945-2.427q0.258-0.248 0.528-0.484zm-5.94 8.634q0.313 0.604 0.653 1.19 0.347 0.6 0.722 1.183a20.922 20.922 0 0 1-2.12-0.34c0.204-0.657 0.454-1.34 0.746-2.032zm0-2.31c-0.286-0.678-0.53-1.345-0.73-1.99 0.655-0.147 1.355-0.267 2.084-0.358q-0.366 0.57-0.705 1.16-0.34 0.586-0.65 1.188zm0.522 1.156q0.454-0.945 0.98-1.854 0.522-0.91 1.114-1.775c0.684-0.052 1.385-0.08 2.094-0.08 0.712 0 1.414 0.028 2.098 0.08q0.585 0.865 1.108 1.77 0.526 0.906 0.992 1.845-0.46 0.948-0.988 1.862-0.523 0.908-1.104 1.78c-0.682 0.05-1.387 0.074-2.106 0.074-0.716 0-1.412-0.022-2.082-0.066q-0.596-0.87-1.124-1.783-0.526-0.91-0.982-1.854zm8.25 2.34q0.346-0.603 0.666-1.22a20.867 20.867 0 0 1 0.772 2.024 20.852 20.852 0 0 1-2.145 0.365q0.364-0.578 0.706-1.17zm0.656-3.495q-0.318-0.604-0.66-1.196-0.338-0.582-0.7-1.15c0.733 0.093 1.436 0.216 2.097 0.367a20.96 20.96 0 0 1-0.737 1.98zm-4.708-5.136a21.013 21.013 0 0 1 1.354 1.634q-1.358-0.065-2.718 0c0.447-0.59 0.905-1.138 1.365-1.634zm-5.296-2.805c0.77-0.445 2.47 0.19 4.264 1.783 0.115 0.102 0.23 0.208 0.345 0.318a23.545 23.545 0 0 0-1.96 2.426 24.008 24.008 0 0 0-3.068 0.477q-0.088-0.352-0.158-0.71v2e-3c-0.433-2.21-0.146-3.876 0.577-4.294zm-1.124 12.043q-0.285-0.082-0.566-0.177a8.324 8.324 0 0 1-2.684-1.426 2.03 2.03 0 0 1-0.857-1.368c0-0.837 1.248-1.905 3.33-2.63q0.393-0.138 0.792-0.25a23.565 23.565 0 0 0 1.12 2.904 23.922 23.922 0 0 0-1.134 2.946zm5.326 4.48a8.322 8.322 0 0 1-2.575 1.61 2.03 2.03 0 0 1-1.612 0.062c-0.725-0.42-1.027-2.034-0.616-4.2q0.074-0.385 0.168-0.764a23.104 23.104 0 0 0 3.1 0.448 23.91 23.91 0 0 0 1.974 2.44q-0.214 0.207-0.438 0.403zm1.122-1.112c-0.466-0.502-0.93-1.058-1.384-1.656q0.66 0.026 1.346 0.026 0.703 0 1.388-0.03a20.894 20.894 0 0 1-1.35 1.66zm5.967 1.367a2.03 2.03 0 0 1-0.753 1.428c-0.725 0.42-2.275-0.126-3.947-1.564q-0.287-0.246-0.578-0.526a23.09 23.09 0 0 0 1.928-2.448 22.936 22.936 0 0 0 3.115-0.48q0.07 0.284 0.124 0.556a8.32 8.32 0 0 1 0.11 3.035zm0.834-4.907c-0.127 0.042-0.256 0.082-0.388 0.12a23.06 23.06 0 0 0-1.164-2.913 23.05 23.05 0 0 0 1.12-2.87c0.234 0.067 0.463 0.14 0.683 0.215 2.13 0.732 3.428 1.816 3.428 2.65 0 0.89-1.403 2.044-3.68 2.798z" fill="#61dafb"/>
 <path d="m11.5 8.1604a2.054 2.054 0 1 1-2.054 2.052 2.054 2.054 0 0 1 2.054-2.051" fill="#61dafb"/>
 <g fill="#61dafb" aria-label="React">
  <path d="m33.347 15.282h-1.4323l-1.7188-2.8789q-0.23633-0.40104-0.45833-0.68034-0.22201-0.28646-0.45834-0.4655-0.22917-0.17904-0.5013-0.25781-0.26497-0.08594-0.60156-0.08594h-0.98828v4.3685h-1.2031v-10.27h3.0651q0.67318 0 1.2389 0.17188 0.57292 0.16471 0.98828 0.50846 0.42253 0.34375 0.65886 0.85938 0.23633 0.50846 0.23633 1.196 0 0.53711-0.16471 0.98828-0.15755 0.44401-0.45833 0.79492-0.29362 0.35091-0.71615 0.60156-0.41536 0.24349-0.93815 0.37956v0.02865q0.25781 0.11458 0.44401 0.26497 0.19336 0.14323 0.36524 0.34375 0.17188 0.20052 0.33659 0.45834 0.17188 0.25065 0.37956 0.58724zm-6.1589-9.181v3.724h1.6328q0.45117 0 0.83073-0.13607 0.38672-0.13607 0.66602-0.38672 0.2793-0.25781 0.43685-0.62305 0.15755-0.3724 0.15755-0.83073 0-0.82357-0.53711-1.2819-0.52995-0.4655-1.5397-0.4655z"/>
  <path d="m40.064 11.909h-5.1777q0.02865 1.2246 0.65886 1.8906 0.63021 0.66602 1.7331 0.66602 1.2389 0 2.2773-0.81641v1.1029q-0.9668 0.70182-2.5566 0.70182-1.554 0-2.4421-0.99544-0.88802-1.0026-0.88802-2.8145 0-1.7116 0.9668-2.7858 0.97396-1.0814 2.4134-1.0814t2.2272 0.93099q0.78776 0.93099 0.78776 2.5853zm-1.2031-0.99544q-0.0072-1.0169-0.49414-1.5827-0.47982-0.56576-1.3392-0.56576-0.83073 0-1.4108 0.5944-0.58008 0.5944-0.71615 1.554z"/>
  <path d="m47.09 15.282h-1.1745v-1.1458h-0.02865q-0.76628 1.3177-2.2559 1.3177-1.0957 0-1.7188-0.58008-0.61589-0.58008-0.61589-1.5397 0-2.0553 2.4206-2.3919l2.1986-0.30794q0-1.8691-1.5111-1.8691-1.3249 0-2.3919 0.90235v-1.2031q1.0814-0.6875 2.4922-0.6875 2.5853 0 2.5853 2.7357zm-1.1745-3.7096-1.7689 0.24349q-0.81641 0.11458-1.2318 0.4082-0.41536 0.28646-0.41536 1.0241 0 0.53711 0.37956 0.88086 0.38672 0.33659 1.0241 0.33659 0.8737 0 1.4395-0.60872 0.57292-0.61589 0.57292-1.554z"/>
  <path d="m54.301 14.945q-0.84505 0.50846-2.0052 0.50846-1.5684 0-2.5352-1.0169-0.95964-1.0241-0.95964-2.6497 0-1.8119 1.0384-2.9076 1.0384-1.1029 2.7715-1.1029 0.9668 0 1.7044 0.35807v1.2031q-0.81641-0.57292-1.7474-0.57292-1.1244 0-1.8477 0.80925-0.71615 0.80209-0.71615 2.1126 0 1.2891 0.67318 2.0339 0.68034 0.74479 1.819 0.74479 0.95964 0 1.8047-0.63737z"/>
  <path d="m59.479 15.21q-0.41537 0.22917-1.0957 0.22917-1.9264 0-1.9264-2.1484v-4.3399h-1.2604v-1.0026h1.2604v-1.7904l1.1745-0.37956v2.1699h1.8477v1.0026h-1.8477v4.1322q0 0.73763 0.25065 1.0527 0.25065 0.3151 0.83073 0.3151 0.44401 0 0.76628-0.24349z"/>
 </g>
</svg>
